<?xml version="1.0" standalone="no"?><!DOCTYPE svg PUBLIC "-//W3C//DTD SVG 1.1//EN" "http://www.w3.org/Graphics/SVG/1.1/DTD/svg11.dtd"><svg t="1669107640628" class="icon" viewBox="0 0 1024 1024" version="1.1" xmlns="http://www.w3.org/2000/svg" p-id="7335" xmlns:xlink="http://www.w3.org/1999/xlink" width="200" height="200"><path d="M873 139H153c-22.091 0-40 17.909-40 40v497.691c0 22.092 17.909 40 40 40h720c22.091 0 40-17.908 40-40V179c0-22.091-17.909-40-40-40z m-40 80v417.691H193V219h640zM743.451 805.426c22.092 0 40 17.908 40 40 0 21.87-17.552 39.641-39.338 39.994l-0.662 0.006H283.55c-22.091 0-40-17.909-40-40 0-21.87 17.552-39.642 39.338-39.995l0.662-0.005H743.45z" fill="#b37feb" p-id="7336"></path><path d="M390.23 276.459c15.62-15.621 40.947-15.621 56.568 0 15.465 15.464 15.62 40.442 0.464 56.097l-0.464 0.471-122.994 122.994c-15.62 15.62-40.947 15.62-56.568 0-15.465-15.465-15.62-40.442-0.464-56.097l0.464-0.472 122.993-122.993z" fill="#b37feb" p-id="7337"></path><path d="M446.884 521.84c15.621 15.62 15.621 40.947 0 56.568-15.464 15.465-40.442 15.62-56.097 0.464l-0.471-0.464-122.994-122.993c-15.62-15.621-15.62-40.948 0-56.569 15.465-15.465 40.442-15.62 56.097-0.464l0.472 0.464 122.993 122.993zM632.77 276.459c-15.62-15.621-40.947-15.621-56.568 0-15.465 15.464-15.62 40.442-0.464 56.097l0.464 0.471 122.994 122.994c15.62 15.62 40.947 15.62 56.568 0 15.465-15.465 15.62-40.442 0.464-56.097l-0.464-0.472-122.993-122.993z" fill="#b37feb" p-id="7338"></path><path d="M576.116 521.84c-15.621 15.62-15.621 40.947 0 56.568 15.464 15.465 40.442 15.62 56.097 0.464l0.471-0.464 122.994-122.993c15.62-15.621 15.62-40.948 0-56.569-15.465-15.465-40.442-15.62-56.097-0.464l-0.472 0.464-122.993 122.993z" fill="#b37feb" p-id="7339"></path></svg>